<?xml version="1.0" encoding="utf-8"?>
<!-- Generator: Adobe Illustrator 19.0.0, SVG Export Plug-In . SVG Version: 6.00 Build 0)  -->
<svg version="1.1" id="Layer_1" xmlns="http://www.w3.org/2000/svg" xmlns:xlink="http://www.w3.org/1999/xlink" x="0px" y="0px"
	 viewBox="0 0 612 612" style="enable-background:new 0 0 612 612;" xml:space="preserve">
<style type="text/css">
	.st0{fill:#FF0000;}
</style>
<g id="XMLID_2_">
	<path id="XMLID_3_" class="st0" d="M176.3,240.1c4.3,12.5,10.4,25.5,17.8,38.9v195.5L78.3,527.2c-8.8,3.5-18.4-3-18.4-12.5V304.8
		c0-10,7.6-21.2,16.9-24.9L176.3,240.1z M407.1,204.4c0,47.2-69.1,133.2-95.5,164.4c-5.4,6.3-14.9,6.3-20.3,0
		c-26.5-31.2-95.5-117.2-95.5-164.4c0-58.4,47.3-105.7,105.7-105.7C359.8,98.8,407.1,146.1,407.1,204.4z M332.1,386.2
		c16.5-19.5,34-41.6,49.9-64.3v206.3l-161-53.7V321.8c15.9,22.7,33.4,44.9,49.9,64.3c7.7,9,18.8,14.2,30.6,14.2
		S324.4,395.2,332.1,386.2z M543,246.4v209.9c0,10-7.6,21.2-16.9,24.9l-117.3,46.9V286.6l115.8-52.7
		C533.4,230.4,543,236.9,543,246.4z"/>
</g>
</svg>
