<?xml version="1.0" encoding="utf-8"?>
<!-- Generator: Adobe Illustrator 19.0.0, SVG Export Plug-In . SVG Version: 6.00 Build 0)  -->
<svg version="1.1" id="Layer_1" xmlns="http://www.w3.org/2000/svg" xmlns:xlink="http://www.w3.org/1999/xlink" x="0px" y="0px"
	 viewBox="0 0 612 612" style="enable-background:new 0 0 612 612;" xml:space="preserve">
<style type="text/css">
	.st0{fill:#FF0000;}
</style>
<g id="XMLID_2_">
	<path id="XMLID_3_" class="st0" d="M494.8,238.7c-40,27.7-80.3,55.4-120.1,83.4c-16.7,11.6-44.9,35.2-65.7,35.2h-0.3h-0.3
		c-20.8,0-49-23.6-65.7-35.2c-39.8-28-80.1-55.7-119.9-83.4c-18.2-12.3-44.2-41.3-44.2-64.7c0-25.2,13.6-46.7,41.1-46.7h377.9
		c22.3,0,41.1,18.5,41.1,41.1C538.7,197.1,517.4,223,494.8,238.7z M538.7,447.6c0,22.6-18.5,41.1-41.1,41.1H119.8
		c-22.6,0-41.1-18.5-41.1-41.1V243.8c7.7,8.5,16.4,15.9,25.9,22.3c42.6,29,85.7,58,127.6,88.6c21.6,15.9,48.3,35.4,76.2,35.4h0.3
		h0.3c28,0,54.7-19.5,76.2-35.4c41.8-30.3,85-59.6,127.8-88.6c9.2-6.4,18-13.9,25.7-22.3V447.6z"/>
</g>
</svg>
